#!OML:ASF H:\Terrain\Patient Classification 1\Walking\steve\steve.ASF
:FULLY-SPECIFIED
:DEGREES


244
root 8.53504 16.4834 18.6957 6.25813 -9.91625 2.39248
lowerback 1.16261 3.89019 -3.54996
upperback -2.66748 5.02194 -2.25617
thorax -3.50221 2.56378 -0.560023
lowerneck -11.7411 -1.21911 -2.75362
upperneck 12.2568 -2.04161 6.08353
head 5.72327 -0.670284 2.20013
rclavicle -6.2232e-014 2.78299e-015
rhumerus -36.85 3.43587 -90.2409
rradius 63.8578
rwrist -19.9411
rhand -25.431 -37.6651
rfingers 7.12502
rthumb 1.09529 -67.642
lclavicle -6.2232e-014 2.78299e-015
lhumerus -58.9188 27.6594 52.9652
lradius 7.37615
lwrist -30.9341
lhand -18.69 -11.4689
lfingers 7.12502
lthumb 7.60441 18.3744
rfemur -16.4125 6.41728 16.9161
rtibia 72.1089
rfoot 14.2101 -6.80385
rtoes 10.0795
lfemur -28.0944 3.32118 -27.2211
ltibia 35.3095
lfoot -13.7761 -0.689664
ltoes 3.82683
245
root 8.54128 16.5183 18.9389 6.19743 -9.67543 2.41596
lowerback 1.25439 3.717 -3.46137
upperback -2.68542 4.78723 -2.28238
thorax -3.55806 2.44462 -0.63174
lowerneck -11.7638 -1.05952 -2.5876
upperneck 12.608 -1.8835 6.16525
head 5.82948 -0.574374 2.21455
rclavicle 8.62228e-015 7.55382e-015
rhumerus -37.8806 2.30677 -90.4399
rradius 61.9818
rwrist -19.2394
rhand -24.2242 -36.4541
rfingers 7.12502
rthumb 2.2608 -66.4218
lclavicle 8.62228e-015 7.55382e-015
lhumerus -57.7192 28.547 53.0558
lradius 7.94869
lwrist -32.1053
lhand -18.4974 -12.3128
lfingers 7.12502
lthumb 7.79027 17.5237
rfemur -18.2856 6.13849 17.034
rtibia 73.4957
rfoot 11.6533 -5.5276
rtoes 9.43442
lfemur -26.6534 3.16888 -27.3714
ltibia 34.5893
lfoot -14.2995 -0.771641
ltoes 2.15124
246
root 8.55194 16.564 19.1952 6.03974 -9.43471 2.86239
lowerback 1.16106 3.58654 -3.70852
upperback -2.63844 4.6087 -2.39157
thorax -3.46492 2.35945 -0.590127
lowerneck -11.4284 -0.974233 -2.53039
upperneck 12.6386 -1.76587 6.04916
head 5.77461 -0.528264 2.17841
rclavicle -3.97569e-014 5.96354e-015
rhumerus -39.2874 1.67838 -90.6342
rradius 60.894
rwrist -19.716
rhand -24.8547 -35.0493
rfingers 7.12502
rthumb 1.65187 -65.0226
lclavicle -3.97569e-014 5.96354e-015
lhumerus -56.3864 29.4291 53.4201
lradius 8.51238
lwrist -33.3371
lhand -18.3867 -13.1685
lfingers 7.12502
lthumb 7.89715 16.6639
rfemur -20.2443 5.16929 16.7949
rtibia 74.7389
rfoot 10.1215 -2.07157
rtoes -7.04521
lfemur -25.0411 3.03846 -27.9965
ltibia 33.7988
lfoot -14.6643 -0.844034
ltoes 1.07876
247
root 8.56368 16.6003 19.4483 5.90588 -9.01472 3.04097
lowerback 1.21229 3.43858 -3.62644
upperback -2.66796 4.40895 -2.42359
thorax -3.51135 2.258 -0.663401
lowerneck -11.0813 -0.997037 -2.57406
upperneck 12.6701 -1.78265 5.966
head 5.72532 -0.549924 2.1581
rclavicle -7.23079e-014 4.37326e-015
rhumerus -40.8176 0.903781 -90.6869
rradius 59.7107
rwrist -20.1043
rhand -24.5783 -38.1802
rfingers 7.12502
rthumb 1.91881 -68.1514
lclavicle -7.23079e-014 4.37326e-015
lhumerus -55.103 30.2046 53.8635
lradius 9.1185
lwrist -34.5619
lhand -17.9505 -13.7209
lfingers 7.12502
lthumb 8.31809 16.0953
rfemur -22.0558 4.34024 16.8781
rtibia 75.6332
rfoot 7.95274 -0.207477
rtoes -17.5283
lfemur -23.4713 2.66057 -28.2817
ltibia 33.0791
lfoot -15.2136 -0.95755
ltoes 0.603542
248
root 8.5622 16.6191 19.6853 5.90398 -8.6557 2.57147
lowerback 1.51268 3.29224 -3.15582
upperback -2.84829 4.2138 -2.22847
thorax -3.84351 2.15437 -0.741089
lowerneck -10.5858 -0.909761 -2.67642
upperneck 12.7986 -1.66888 6.03262
head 5.67667 -0.500984 2.20636
rclavicle 1.75303e-014 1.63003e-014
rhumerus -42.2926 -0.119543 -90.6642
rradius 58.116
rwrist -20.1852
rhand -24.8861 -39.5115
rfingers 7.12502
rthumb 1.62153 -69.4851
lclavicle 1.75303e-014 1.63003e-014
lhumerus -54.0335 30.9339 54.1412
lradius 9.80775
lwrist -35.5264
lhand -17.5826 -14.594
lfingers 7.12502
lthumb 8.67318 15.2078
rfemur -23.7742 4.20172 17.7607
rtibia 76.1263
rfoot 5.53617 -0.167247
rtoes -18.3562
lfemur -22.1021 2.22792 -27.7782
ltibia 32.3389
lfoot -15.8193 -1.27444
ltoes 0.112973
249
root 8.56177 16.6377 19.9279 6.01146 -8.20076 2.20495
lowerback 1.44647 3.09515 -2.77375
upperback -2.95429 3.96976 -2.05229
thorax -3.89775 2.02583 -0.758634
lowerneck -10.4716 -0.781768 -2.59422
upperneck 13.2698 -1.5196 5.94838
head 5.79639 -0.426466 2.18173
rclavicle -1.39833e-014 2.78299e-015
rhumerus -43.4754 -0.970272 -90.5646
rradius 56.0486
rwrist -20.3002
rhand -24.7094 -42.445
rfingers 7.12502
rthumb 1.79227 -72.4173
lclavicle -1.39833e-014 2.78299e-015
lhumerus -52.9587 31.7003 54.4402
lradius 10.5915
lwrist -36.0371
lhand -18.2491 -16.6144
lfingers 7.12502
lthumb 8.02994 13.213
rfemur -25.4884 4.0045 18.4544
rtibia 76.3658
rfoot 3.31248 -0.099964
rtoes -16.1272
lfemur -20.8374 1.89626 -27.443
ltibia 31.614
lfoot -16.183 -1.74238
ltoes -0.105993
250
root 8.5676 16.6606 20.1811 6.00199 -7.56077 2.31717
lowerback 1.18932 2.84406 -2.75085
upperback -2.89973 3.64913 -2.00923
thorax -3.69343 1.8652 -0.693573
lowerneck -11.4886 -0.980788 -2.48138
upperneck 14.4279 -1.83433 5.82753
head 6.34979 -0.552165 2.10749
rclavicle -5.48335e-014 1.11319e-014
rhumerus -44.5607 -1.58977 -90.3238
rradius 53.9463
rwrist -20.2553
rhand -24.5835 -42.8802
rfingers 7.12502
rthumb 1.91387 -72.8513
lclavicle -5.48335e-014 1.11319e-014
lhumerus -48.9409 28.9714 60.0439
lradius 11.7428
lwrist -31.6351
lhand -17.7843 -15.7647
lfingers 7.12502
lthumb 8.47851 14.0451
rfemur -27.0474 3.40208 18.4942
rtibia 76.4605
rfoot 1.35866 0.247153
rtoes -13.9908
lfemur -19.4185 1.51382 -27.6887
ltibia 30.9366
lfoot -16.4563 -2.0373
ltoes 1.26826
251
root 8.56263 16.6728 20.4273 5.82304 -7.15039 2.69452
lowerback 1.26897 2.65289 -3.31003
upperback -2.87508 3.37602 -1.91438
thorax -3.74993 1.74645 -0.27706
lowerneck -11.212 -0.849424 -2.14454
upperneck 14.5179 -1.60998 5.13868
head 6.31233 -0.483628 1.85141
rclavicle -1.78658e-014 1.98785e-014
rhumerus -46.0032 -1.98082 -90.0661
rradius 52.4427
rwrist -20.7786
rhand -24.5263 -42.9372
rfingers 7.12502
rthumb 1.96905 -72.9079
lclavicle -1.78658e-014 1.98785e-014
lhumerus -45.4919 26.4425 64.6969
lradius 12.6272
lwrist -27.3861
lhand -16.7742 -14.0178
lfingers 7.12502
lthumb 9.45321 15.7501
rfemur -28.7139 2.94801 18.4106
rtibia 76.4897
rfoot -0.467182 0.51595
rtoes -17.4677
lfemur -17.9127 1.32674 -28.1906
ltibia 30.2559
lfoot -16.842 -2.20261
ltoes 2.56802
